<?xml version="1.0" encoding="UTF-8"?>
<svg xmlns="http://www.w3.org/2000/svg" xmlns:xlink="http://www.w3.org/1999/xlink" width="324pt" height="324pt" viewBox="0 0 324 324" version="1.1">
<g id="surface1">
<path style=" stroke:none;fill-rule:nonzero;fill:rgb(0%,37.298584%,65.499878%);fill-opacity:1;" d="M 5.082031 162.222656 C 5.082031 249.28125 75.65625 319.855469 162.71875 319.855469 C 249.78125 319.855469 320.359375 249.28125 320.359375 162.222656 C 320.359375 75.164063 249.78125 4.59375 162.71875 4.59375 C 75.65625 4.59375 5.082031 75.164063 5.082031 162.222656 Z M 0.90625 161.96875 C 0.90625 72.753906 73.230469 0.433594 162.453125 0.433594 C 251.671875 0.433594 323.996094 72.753906 323.996094 161.96875 C 323.996094 251.183594 251.671875 323.503906 162.453125 323.503906 C 73.230469 323.503906 0.90625 251.183594 0.90625 161.96875 "/>
<path style=" stroke:none;fill-rule:evenodd;fill:rgb(0%,37.298584%,65.499878%);fill-opacity:1;" d="M 131.644531 103.046875 C 131.644531 103.046875 140.523438 117.910156 139.132813 134.921875 C 137.738281 151.933594 117.710938 216.398438 114.226563 226.875 C 110.746094 237.355469 111.90625 243.886719 120.527344 243.886719 L 202.472656 243.886719 C 212.953125 243.886719 210.628906 234.570313 208.773438 227.804688 C 206.914063 221.039063 184.765625 152.132813 184.765625 134.6875 C 184.765625 117.246094 191.0625 103.019531 191.0625 103.019531 Z M 127.789063 96.628906 C 130.515625 96.628906 192.363281 96.71875 197.304688 96.71875 C 202.246094 96.71875 189.902344 117.214844 189.902344 133.992188 C 189.902344 150.507813 212.023438 221.503906 214.34375 229.195313 C 216.664063 236.890625 216.433594 248.992188 204.5625 248.992188 L 118.171875 248.992188 C 108.15625 248.992188 103.714844 240.835938 107.230469 228.964844 C 110.746094 217.09375 133.871094 154.207031 134.335938 134.410156 C 134.800781 114.613281 118.644531 96.628906 127.789063 96.628906 "/>
<path style=" stroke:none;fill-rule:nonzero;fill:rgb(0%,37.298584%,65.499878%);fill-opacity:1;" d="M 156.589844 68.8125 C 156.589844 65.789063 159.039063 63.339844 162.0625 63.339844 L 162.277344 63.339844 C 165.296875 63.339844 167.746094 65.789063 167.746094 68.8125 L 167.746094 302.800781 C 167.746094 305.824219 165.296875 308.273438 162.277344 308.273438 L 162.0625 308.273438 C 159.039063 308.273438 156.589844 305.824219 156.589844 302.800781 L 156.589844 68.8125 "/>
<path style=" stroke:none;fill-rule:nonzero;fill:rgb(0%,37.298584%,65.499878%);fill-opacity:1;" d="M 147.160156 284.398438 C 147.160156 284.398438 175.324219 273.457031 175.324219 260.511719 C 175.324219 247.570313 148.15625 241.292969 147.824219 228.683594 C 147.492188 216.074219 175.695313 206.296875 175.550781 187.742188 C 175.324219 158.105469 141.027344 160.148438 140.671875 142.261719 C 140.328125 125.164063 182.734375 107.722656 195.265625 82.761719 C 208.011719 57.367188 200.519531 41.382813 186.933594 33.988281 C 173.074219 26.445313 158.101563 25.046875 158.101563 25.046875 C 158.101563 25.046875 154.777344 22.402344 144.601563 22.058594 C 134.429688 21.71875 136.222656 24.710938 132.460938 24.796875 C 128.699219 24.882813 122.371094 25.394531 121.945313 29.839844 C 121.519531 34.285156 124.253906 34.371094 125.195313 34.882813 C 126.136719 35.398438 137.121094 35.808594 137.121094 35.808594 C 137.121094 35.808594 138.277344 36.351563 137.660156 36.429688 C 137.046875 36.507813 125.332031 35.808594 125.332031 35.808594 C 125.332031 35.808594 124.472656 38.21875 127.636719 38.910156 C 130.796875 39.605469 133.648438 39.371094 134.804688 40.066406 C 135.960938 40.761719 139.96875 40.914063 145.902344 40.992188 C 151.835938 41.066406 157.152344 41.300781 160.15625 40.992188 C 163.164063 40.683594 166.863281 40.992188 169.40625 41.761719 C 171.949219 42.53125 186.667969 48.90625 186.839844 61.214844 C 187.007813 73.527344 163.242188 98.660156 152.8125 105.671875 C 142.378906 112.683594 126.304688 126.53125 126.304688 143.628906 C 126.304688 160.730469 152.8125 173.382813 151.785156 186.203125 C 150.757813 199.027344 131.777344 210.828125 131.777344 228.097656 C 131.777344 245.367188 158.28125 253.574219 163.070313 261.609375 C 167.859375 269.644531 147.160156 284.398438 147.160156 284.398438 "/>
<path style=" stroke:none;fill-rule:nonzero;fill:rgb(100%,100%,100%);fill-opacity:1;" d="M 137.527344 25.210938 C 136.703125 25.667969 135.882813 26.855469 136.519531 27.40625 C 137.160156 27.953125 138.644531 28.136719 140.359375 27.222656 C 142.074219 26.308594 142.804688 25.578125 142.257813 25.027344 C 141.710938 24.480469 138.347656 24.753906 137.527344 25.210938 "/>
<path style=" stroke:none;fill-rule:evenodd;fill:rgb(100%,100%,100%);fill-opacity:1;" d="M 168.925781 34.625 C 171.863281 35.769531 193.1875 43.335938 194.191406 57.113281 C 195.195313 70.886719 182.605469 88.238281 174.042969 96.511719 C 164.464844 105.769531 131.683594 125.335938 132.226563 142.144531 C 132.890625 162.722656 163.808594 163.257813 163.976563 185.65625 C 164.148438 208.054688 139.308594 208.308594 139.308594 225.921875 C 139.308594 243.53125 171.066406 255.128906 171.234375 261.796875 C 171.40625 268.464844 160.078125 275.410156 160.078125 275.410156 C 160.078125 275.410156 171.105469 269.472656 171.960938 262.292969 C 172.816406 255.113281 159.953125 252.210938 153.1875 245.777344 C 146.785156 239.691406 138.785156 234.28125 140.324219 221.972656 C 141.863281 209.660156 159.992188 207.75 163.582031 194.242188 C 167.175781 180.734375 166.488281 177.820313 162.375 173.710938 C 144.496094 155.851563 133.921875 156.175781 133.285156 142.144531 C 132.535156 125.554688 168.347656 105.222656 177.863281 93.992188 C 188.101563 81.902344 194.703125 71.65625 195.046875 58.480469 C 195.4375 43.429688 173.714844 35.136719 169.453125 33.890625 C 167.980469 33.457031 167.980469 34.257813 168.925781 34.625 "/>
<path style=" stroke:none;fill-rule:nonzero;fill:rgb(0%,37.298584%,65.499878%);fill-opacity:1;" d="M 48.332031 194.996094 C 48.332031 179.886719 60.582031 167.636719 75.691406 167.636719 L 249.125 167.636719 C 264.234375 167.636719 276.484375 179.886719 276.484375 194.996094 L 276.484375 196.328125 C 276.484375 211.4375 264.234375 223.6875 249.125 223.6875 L 75.691406 223.6875 C 60.582031 223.6875 48.332031 211.4375 48.332031 196.328125 L 48.332031 194.996094 "/>
<path style=" stroke:none;fill-rule:nonzero;fill:rgb(0%,37.298584%,65.499878%);fill-opacity:1;" d="M 156.589844 242.117188 C 156.589844 239.09375 159.039063 236.644531 162.0625 236.644531 L 162.214844 236.644531 C 165.238281 236.644531 167.6875 239.09375 167.6875 242.117188 L 167.6875 258.875 C 167.6875 261.894531 165.238281 264.34375 162.214844 264.34375 L 162.0625 264.34375 C 159.039063 264.34375 156.589844 261.894531 156.589844 258.875 L 156.589844 242.117188 "/>
<path style=" stroke:none;fill-rule:nonzero;fill:rgb(100%,100%,100%);fill-opacity:1;" d="M 91.382813 177.429688 L 101.625 177.429688 L 98.078125 199.464844 C 97.726563 201.648438 97.089844 203.714844 96.164063 205.652344 C 95.242188 207.59375 94.011719 209.292969 92.472656 210.746094 C 90.933594 212.199219 89.398438 213.222656 87.871094 213.8125 C 85.746094 214.632813 83.289063 215.046875 80.5 215.046875 C 78.886719 215.046875 77.144531 214.921875 75.277344 214.667969 C 73.410156 214.414063 71.894531 213.914063 70.734375 213.167969 C 69.570313 212.421875 68.570313 211.355469 67.726563 209.980469 C 66.886719 208.601563 66.386719 207.179688 66.230469 205.71875 C 65.976563 203.363281 65.992188 201.28125 66.285156 199.464844 L 69.832031 177.429688 L 80.074219 177.429688 L 76.445313 199.988281 C 76.117188 202.003906 76.367188 203.582031 77.183594 204.714844 C 78.003906 205.851563 79.296875 206.417969 81.074219 206.417969 C 82.835938 206.417969 84.304688 205.859375 85.484375 204.742188 C 86.664063 203.621094 87.421875 202.039063 87.75 199.988281 L 91.382813 177.429688 "/>
<path style=" stroke:none;fill-rule:nonzero;fill:rgb(100%,100%,100%);fill-opacity:1;" d="M 109.019531 177.425781 L 120.597656 177.429688 L 127.628906 197.855469 L 130.914063 177.429688 L 140.601563 177.429688 L 134.644531 214.425781 L 123.996094 214.425781 L 115.386719 189.855469 L 111.355469 214.425781 L 103.0625 214.425781 L 109.019531 177.425781 "/>
<path style=" stroke:none;fill-rule:nonzero;fill:rgb(100%,100%,100%);fill-opacity:1;" d="M 147.3125 177.429688 L 157.601563 177.429688 L 151.644531 214.425781 L 141.359375 214.425781 L 147.3125 177.429688 "/>
<path style=" stroke:none;fill-rule:nonzero;fill:rgb(100%,100%,100%);fill-opacity:1;" d="M 163.964844 177.429688 L 174.203125 177.429688 L 169.714844 205.332031 L 185.746094 205.332031 L 184.285156 214.425781 L 158.007813 214.425781 L 163.964844 177.429688 "/>
<path style=" stroke:none;fill-rule:evenodd;fill:rgb(100%,100%,100%);fill-opacity:1;" d="M 210.453125 208.328125 L 198.835938 208.328125 L 196.1875 214.425781 L 185.722656 214.425781 L 204.164063 177.429688 L 217.183594 177.429688 L 221.867188 214.425781 L 211.136719 214.425781 Z M 210.058594 198.253906 L 208.089844 187.019531 L 202.804688 198.253906 Z M 210.058594 198.253906 "/>
<path style=" stroke:none;fill-rule:evenodd;fill:rgb(100%,100%,100%);fill-opacity:1;" d="M 230.59375 177.429688 L 249.800781 177.429688 C 253.003906 177.429688 255.316406 178.3125 256.746094 180.078125 C 258.175781 181.84375 258.679688 184.03125 258.261719 186.640625 C 257.910156 188.828125 256.996094 190.703125 255.519531 192.269531 C 254.535156 193.3125 253.210938 194.140625 251.542969 194.742188 C 253.824219 195.382813 255.398438 196.480469 256.269531 198.035156 C 257.144531 199.59375 257.390625 201.546875 257.011719 203.902344 C 256.703125 205.820313 256.023438 207.546875 254.980469 209.074219 C 253.933594 210.605469 252.644531 211.816406 251.109375 212.710938 C 250.160156 213.265625 248.796875 213.667969 247.023438 213.921875 C 244.65625 214.257813 243.097656 214.425781 242.34375 214.425781 L 224.640625 214.425781 Z M 238.59375 191.949219 L 243.0625 191.949219 C 244.664063 191.949219 245.828125 191.640625 246.558594 191.023438 C 247.285156 190.410156 247.742188 189.519531 247.929688 188.359375 C 248.101563 187.28125 247.921875 186.4375 247.394531 185.828125 C 246.863281 185.222656 245.820313 184.921875 244.261719 184.921875 L 239.722656 184.921875 Z M 236.253906 206.46875 L 241.488281 206.46875 C 243.253906 206.46875 244.554688 206.121094 245.390625 205.421875 C 246.230469 204.722656 246.742188 203.785156 246.933594 202.609375 C 247.109375 201.515625 246.890625 200.636719 246.28125 199.972656 C 245.671875 199.308594 244.464844 198.976563 242.671875 198.976563 L 237.460938 198.976563 L 236.253906 206.46875 "/>
</g>
</svg>
